<?xml version="1.0" encoding="utf-8"?>
<!-- Generator: Adobe Illustrator 16.0.0, SVG Export Plug-In . SVG Version: 6.00 Build 0)  -->
<!DOCTYPE svg PUBLIC "-//W3C//DTD SVG 1.0//EN" "http://www.w3.org/TR/2001/REC-SVG-20010904/DTD/svg10.dtd">
<svg version="1.0" id="Layer_1" xmlns="http://www.w3.org/2000/svg" xmlns:xlink="http://www.w3.org/1999/xlink" x="0px" y="0px"
	 width="42px" height="42px" viewBox="0 0 42 42" enable-background="new 0 0 42 42" xml:space="preserve">
<g>
	<defs>
		<path id="SVGID_1_" d="M42,38c0,2.209-1.791,4-4,4H4c-2.209,0-4-1.791-4-4V4c0-2.209,1.791-4,4-4h34c2.209,0,4,1.791,4,4V38z"/>
	</defs>
	<clipPath id="SVGID_2_">
		<use xlink:href="#SVGID_1_"  overflow="visible"/>
	</clipPath>
	<linearGradient id="SVGID_3_" gradientUnits="userSpaceOnUse" x1="1.1719" y1="40.8291" x2="40.8287" y2="1.1723">
		<stop  offset="0" style="stop-color:#FFA385"/>
		<stop  offset="1" style="stop-color:#FF6633"/>
	</linearGradient>
	<path clip-path="url(#SVGID_2_)" fill-rule="evenodd" clip-rule="evenodd" fill="url(#SVGID_3_)" d="M42,38c0,2.209-1.791,4-4,4H4
		c-2.209,0-4-1.791-4-4V4c0-2.209,1.791-4,4-4h34c2.209,0,4,1.791,4,4V38z"/>
	<g clip-path="url(#SVGID_2_)">
		
			<circle fill="none" stroke="#FF6633" stroke-width="2" stroke-linecap="round" stroke-linejoin="round" stroke-miterlimit="10" cx="26.498" cy="27.701" r="10.035"/>
		<path fill="none" stroke="#FF6633" stroke-width="2" stroke-linecap="round" stroke-linejoin="round" stroke-miterlimit="10" d="
			M16.105,10.527c-0.699-0.371-1.498-0.581-2.346-0.581c-2.77,0-5.016,2.246-5.016,5.017c0,0.847,0.209,1.646,0.58,2.345"/>
		<path fill="none" stroke="#FF6633" stroke-width="2" stroke-linecap="round" stroke-linejoin="round" stroke-miterlimit="10" d="
			M9.324,38.093c-0.371,0.7-0.58,1.498-0.58,2.345c0,2.771,2.246,5.018,5.016,5.018c0.848,0,1.646-0.211,2.346-0.581"/>
		<path fill="none" stroke="#FF6633" stroke-width="2" stroke-linecap="round" stroke-linejoin="round" stroke-miterlimit="10" d="
			M36.891,44.875c0.699,0.369,1.498,0.58,2.344,0.58c2.771,0,5.018-2.246,5.018-5.018c0-0.847-0.209-1.645-0.58-2.346"/>
		<path fill="none" stroke="#FF6633" stroke-width="2" stroke-linecap="round" stroke-linejoin="round" stroke-miterlimit="10" d="
			M43.672,17.308c0.371-0.699,0.58-1.498,0.58-2.345c0-2.771-2.246-5.017-5.018-5.017c-0.846,0-1.645,0.21-2.344,0.581"/>
		<g>
			
				<line fill="none" stroke="#FF6633" stroke-width="2" stroke-linecap="round" stroke-linejoin="round" stroke-miterlimit="10" x1="18.973" y1="7.022" x2="23.064" y2="18.269"/>
			
				<line fill="none" stroke="#FF6633" stroke-width="2" stroke-linecap="round" stroke-linejoin="round" stroke-miterlimit="10" x1="34.023" y1="7.022" x2="29.932" y2="18.269"/>
		</g>
		<g>
			
				<line fill="none" stroke="#FF6633" stroke-width="2" stroke-linecap="round" stroke-linejoin="round" stroke-miterlimit="10" x1="5.82" y1="35.227" x2="17.066" y2="31.133"/>
			
				<line fill="none" stroke="#FF6633" stroke-width="2" stroke-linecap="round" stroke-linejoin="round" stroke-miterlimit="10" x1="5.818" y1="20.174" x2="17.066" y2="24.268"/>
		</g>
		<g>
			
				<line fill="none" stroke="#FF6633" stroke-width="2" stroke-linecap="round" stroke-linejoin="round" stroke-miterlimit="10" x1="34.023" y1="48.379" x2="29.932" y2="37.133"/>
			
				<line fill="none" stroke="#FF6633" stroke-width="2" stroke-linecap="round" stroke-linejoin="round" stroke-miterlimit="10" x1="18.972" y1="48.379" x2="23.064" y2="37.133"/>
		</g>
		<g>
			
				<line fill="none" stroke="#FF6633" stroke-width="2" stroke-linecap="round" stroke-linejoin="round" stroke-miterlimit="10" x1="47.176" y1="20.174" x2="35.93" y2="24.268"/>
			
				<line fill="none" stroke="#FF6633" stroke-width="2" stroke-linecap="round" stroke-linejoin="round" stroke-miterlimit="10" x1="47.177" y1="35.227" x2="35.93" y2="31.133"/>
		</g>
		<path fill="none" stroke="#FF6633" stroke-width="2" stroke-linecap="round" stroke-linejoin="round" stroke-miterlimit="10" d="
			M18.973,48.379c2.348,0.854,4.882,1.322,7.525,1.322s5.178-0.468,7.525-1.322"/>
		<path fill="none" stroke="#FF6633" stroke-width="2" stroke-linecap="round" stroke-linejoin="round" stroke-miterlimit="10" d="
			M18.973,7.022c2.348-0.855,4.882-1.322,7.525-1.322s5.178,0.467,7.525,1.322"/>
		<path fill="none" stroke="#FF6633" stroke-width="2" stroke-linecap="round" stroke-linejoin="round" stroke-miterlimit="10" d="
			M5.82,35.227c-0.855-2.349-1.322-4.883-1.322-7.526s0.467-5.178,1.32-7.526"/>
		<g>
			<path fill="none" stroke="#FF6633" stroke-width="2" stroke-linecap="round" stroke-linejoin="round" stroke-miterlimit="10" d="
				M45.361,34.566c-2.025,5.561-6.437,9.974-11.997,11.998"/>
			<path fill="none" stroke="#FF6633" stroke-width="2" stroke-linecap="round" stroke-linejoin="round" stroke-miterlimit="10" d="
				M45.362,20.835c-2.024-5.561-6.438-9.974-11.998-11.999"/>
			<path fill="none" stroke="#FF6633" stroke-width="2" stroke-linecap="round" stroke-linejoin="round" stroke-miterlimit="10" d="
				M7.635,20.834c2.024-5.561,6.438-9.974,11.997-11.998"/>
			<path fill="none" stroke="#FF6633" stroke-width="2" stroke-linecap="round" stroke-linejoin="round" stroke-miterlimit="10" d="
				M19.632,46.564c-5.56-2.024-9.974-6.438-11.999-11.998"/>
		</g>
		<path fill="none" stroke="#FF6633" stroke-width="2" stroke-linecap="round" stroke-linejoin="round" stroke-miterlimit="10" d="
			M47.176,20.174c0.854,2.349,1.322,4.882,1.322,7.527c0,2.643-0.468,5.178-1.321,7.525"/>
	</g>
	<g clip-path="url(#SVGID_2_)">
		
			<circle fill="none" stroke="#FDFDFD" stroke-width="2" stroke-linecap="round" stroke-linejoin="round" stroke-miterlimit="10" cx="26" cy="27" r="10.035"/>
		<path fill="none" stroke="#FDFDFD" stroke-width="2" stroke-linecap="round" stroke-linejoin="round" stroke-miterlimit="10" d="
			M15.607,9.826c-0.699-0.371-1.498-0.581-2.346-0.581c-2.77,0-5.016,2.246-5.016,5.017c0,0.847,0.209,1.646,0.58,2.345"/>
		<path fill="none" stroke="#FDFDFD" stroke-width="2" stroke-linecap="round" stroke-linejoin="round" stroke-miterlimit="10" d="
			M8.826,37.393c-0.371,0.699-0.58,1.498-0.58,2.344c0,2.771,2.246,5.018,5.016,5.018c0.848,0,1.646-0.21,2.346-0.58"/>
		<path fill="none" stroke="#FDFDFD" stroke-width="2" stroke-linecap="round" stroke-linejoin="round" stroke-miterlimit="10" d="
			M36.393,44.174c0.699,0.37,1.498,0.58,2.345,0.58c2.771,0,5.017-2.246,5.017-5.018c0-0.846-0.21-1.645-0.58-2.346"/>
		<path fill="none" stroke="#FDFDFD" stroke-width="2" stroke-linecap="round" stroke-linejoin="round" stroke-miterlimit="10" d="
			M43.174,16.607c0.37-0.699,0.58-1.498,0.58-2.345c0-2.771-2.246-5.017-5.017-5.017c-0.847,0-1.646,0.21-2.345,0.581"/>
		<g>
			
				<line fill="none" stroke="#FDFDFD" stroke-width="2" stroke-linecap="round" stroke-linejoin="round" stroke-miterlimit="10" x1="18.475" y1="6.322" x2="22.566" y2="17.568"/>
			
				<line fill="none" stroke="#FDFDFD" stroke-width="2" stroke-linecap="round" stroke-linejoin="round" stroke-miterlimit="10" x1="33.525" y1="6.322" x2="29.434" y2="17.568"/>
		</g>
		<g>
			
				<line fill="none" stroke="#FDFDFD" stroke-width="2" stroke-linecap="round" stroke-linejoin="round" stroke-miterlimit="10" x1="5.322" y1="34.525" x2="16.568" y2="30.433"/>
			
				<line fill="none" stroke="#FDFDFD" stroke-width="2" stroke-linecap="round" stroke-linejoin="round" stroke-miterlimit="10" x1="5.321" y1="19.474" x2="16.568" y2="23.566"/>
		</g>
		<g>
			
				<line fill="none" stroke="#FDFDFD" stroke-width="2" stroke-linecap="round" stroke-linejoin="round" stroke-miterlimit="10" x1="33.525" y1="47.678" x2="29.434" y2="36.432"/>
			
				<line fill="none" stroke="#FDFDFD" stroke-width="2" stroke-linecap="round" stroke-linejoin="round" stroke-miterlimit="10" x1="18.474" y1="47.678" x2="22.566" y2="36.432"/>
		</g>
		<g>
			
				<line fill="none" stroke="#FDFDFD" stroke-width="2" stroke-linecap="round" stroke-linejoin="round" stroke-miterlimit="10" x1="46.678" y1="19.474" x2="35.432" y2="23.566"/>
			
				<line fill="none" stroke="#FDFDFD" stroke-width="2" stroke-linecap="round" stroke-linejoin="round" stroke-miterlimit="10" x1="46.679" y1="34.526" x2="35.432" y2="30.433"/>
		</g>
		<path fill="none" stroke="#FDFDFD" stroke-width="2" stroke-linecap="round" stroke-linejoin="round" stroke-miterlimit="10" d="
			M18.475,47.678C20.822,48.533,23.356,49,26,49s5.178-0.467,7.525-1.322"/>
		<path fill="none" stroke="#FDFDFD" stroke-width="2" stroke-linecap="round" stroke-linejoin="round" stroke-miterlimit="10" d="
			M18.475,6.322C20.822,5.467,23.356,5,26,5s5.178,0.467,7.525,1.322"/>
		<path fill="none" stroke="#FDFDFD" stroke-width="2" stroke-linecap="round" stroke-linejoin="round" stroke-miterlimit="10" d="
			M5.322,34.525C4.468,32.178,4,29.644,4,27s0.468-5.178,1.321-7.526"/>
		<g>
			<path fill="none" stroke="#FDFDFD" stroke-width="2" stroke-linecap="round" stroke-linejoin="round" stroke-miterlimit="10" d="
				M44.863,33.866c-2.024,5.56-6.437,9.974-11.997,11.998"/>
			<path fill="none" stroke="#FDFDFD" stroke-width="2" stroke-linecap="round" stroke-linejoin="round" stroke-miterlimit="10" d="
				M44.864,20.134c-2.024-5.561-6.438-9.974-11.998-11.999"/>
			<path fill="none" stroke="#FDFDFD" stroke-width="2" stroke-linecap="round" stroke-linejoin="round" stroke-miterlimit="10" d="
				M7.137,20.134c2.024-5.561,6.438-9.974,11.996-11.998"/>
			<path fill="none" stroke="#FDFDFD" stroke-width="2" stroke-linecap="round" stroke-linejoin="round" stroke-miterlimit="10" d="
				M19.133,45.864C13.574,43.84,9.16,39.426,7.135,33.865"/>
		</g>
		<path fill="none" stroke="#FDFDFD" stroke-width="2" stroke-linecap="round" stroke-linejoin="round" stroke-miterlimit="10" d="
			M46.678,19.474C47.531,21.822,48,24.356,48,27s-0.469,5.178-1.321,7.526"/>
	</g>
</g>
</svg>
