<?xml version="1.0" encoding="utf-8"?>
<!-- Generator: Adobe Illustrator 16.0.0, SVG Export Plug-In . SVG Version: 6.00 Build 0)  -->
<!DOCTYPE svg PUBLIC "-//W3C//DTD SVG 1.1//EN" "http://www.w3.org/Graphics/SVG/1.1/DTD/svg11.dtd">
<svg version="1.1" id="Layer_1" xmlns="http://www.w3.org/2000/svg" xmlns:xlink="http://www.w3.org/1999/xlink" x="0px" y="0px"
	 width="42px" height="42px" viewBox="0 0 42 42" enable-background="new 0 0 42 42" xml:space="preserve">
<g>
	<defs>
		<path id="SVGID_1_" d="M42,38c0,2.209-1.791,4-4,4H4c-2.209,0-4-1.791-4-4V4c0-2.209,1.791-4,4-4h34c2.209,0,4,1.791,4,4V38z"/>
	</defs>
	<clipPath id="SVGID_2_">
		<use xlink:href="#SVGID_1_"  overflow="visible"/>
	</clipPath>
	<linearGradient id="SVGID_3_" gradientUnits="userSpaceOnUse" x1="1.1724" y1="40.8291" x2="40.8289" y2="1.1726">
		<stop  offset="0" style="stop-color:#FFA385"/>
		<stop  offset="1" style="stop-color:#FF6633"/>
	</linearGradient>
	<path clip-path="url(#SVGID_2_)" fill-rule="evenodd" clip-rule="evenodd" fill="url(#SVGID_3_)" d="M42,38c0,2.209-1.791,4-4,4H4
		c-2.209,0-4-1.791-4-4V4c0-2.209,1.791-4,4-4h34c2.209,0,4,1.791,4,4V38z"/>
	<g clip-path="url(#SVGID_2_)">
		<path fill="none" stroke="#FF6633" stroke-width="2" stroke-linecap="round" stroke-linejoin="round" stroke-miterlimit="10" d="
			M1.963,28.367c-3.258-3.258-3.258-8.541,0-11.798c3.258-3.258,8.54-3.258,11.798,0"/>
		<path fill="none" stroke="#FF6633" stroke-width="2" stroke-linecap="round" stroke-linejoin="round" stroke-miterlimit="10" d="
			M13.821,16.63L25.752,4.7l23.728,23.728L31.65,46.256c-3.258,3.259-8.54,3.259-11.798,0.001c-3.259-3.259-3.259-8.54,0-11.798
			c2.972-2.971,7.824-3.509,10.894-0.785"/>
		
			<line fill="none" stroke="#FF6633" stroke-width="2" stroke-linecap="round" stroke-linejoin="round" stroke-miterlimit="10" x1="19.853" y1="46.257" x2="2.023" y2="28.428"/>
		<path fill="none" stroke="#FF6633" stroke-width="2" stroke-linecap="round" stroke-linejoin="round" stroke-miterlimit="10" d="
			M30.56,33.338c2.885,3.379,2.694,6.908-0.261,9.904c-2.255,2.289-4.977,2.073-7.252,0.498c-2.149-1.487-2.228-5.211-0.312-6.924
			c1.533-1.371,4.229-1.506,5.679,0c0.779,0.809,1.576,2.84-0.524,4.473c-1.039,0.809-2.976-0.116-2.801-1.458"/>
		
			<line fill="none" stroke="#FF6633" stroke-width="2" stroke-linecap="round" stroke-linejoin="round" stroke-miterlimit="10" x1="13.82" y1="16.632" x2="30.545" y2="33.353"/>
		
			<line fill-rule="evenodd" clip-rule="evenodd" fill="none" stroke="#FF6633" stroke-width="2" stroke-linecap="round" stroke-linejoin="round" stroke-miterlimit="10" x1="29.097" y1="17.173" x2="33.661" y2="12.609"/>
		
			<line fill-rule="evenodd" clip-rule="evenodd" fill="none" stroke="#FF6633" stroke-width="2" stroke-linecap="round" stroke-linejoin="round" stroke-miterlimit="10" x1="21.188" y1="9.264" x2="22.857" y2="15.503"/>
		
			<line fill-rule="evenodd" clip-rule="evenodd" fill="none" stroke="#FF6633" stroke-width="2" stroke-linecap="round" stroke-linejoin="round" stroke-miterlimit="10" x1="22.857" y1="15.503" x2="29.097" y2="17.173"/>
		
			<line fill-rule="evenodd" clip-rule="evenodd" fill="none" stroke="#FF6633" stroke-width="2" stroke-linecap="round" stroke-linejoin="round" stroke-miterlimit="10" x1="29.097" y1="17.173" x2="30.767" y2="23.412"/>
		
			<line fill-rule="evenodd" clip-rule="evenodd" fill="none" stroke="#FF6633" stroke-width="2" stroke-linecap="round" stroke-linejoin="round" stroke-miterlimit="10" x1="30.767" y1="23.412" x2="37.005" y2="25.082"/>
		
			<line fill-rule="evenodd" clip-rule="evenodd" fill="none" stroke="#FF6633" stroke-width="2" stroke-linecap="round" stroke-linejoin="round" stroke-miterlimit="10" x1="37.006" y1="25.082" x2="41.57" y2="20.518"/>
		
			<line fill-rule="evenodd" clip-rule="evenodd" fill="none" stroke="#FF6633" stroke-width="2" stroke-linecap="round" stroke-linejoin="round" stroke-miterlimit="10" x1="37.005" y1="25.082" x2="38.676" y2="31.321"/>
		
			<line fill-rule="evenodd" clip-rule="evenodd" fill="none" stroke="#FF6633" stroke-width="2" stroke-linecap="round" stroke-linejoin="round" stroke-miterlimit="10" x1="38.676" y1="31.32" x2="44.915" y2="32.99"/>
		
			<line fill-rule="evenodd" clip-rule="evenodd" fill="none" stroke="#FF6633" stroke-width="2" stroke-linecap="round" stroke-linejoin="round" stroke-miterlimit="10" x1="38.676" y1="31.321" x2="34.111" y2="35.885"/>
		
			<line fill-rule="evenodd" clip-rule="evenodd" fill="none" stroke="#FF6633" stroke-width="2" stroke-linecap="round" stroke-linejoin="round" stroke-miterlimit="10" x1="34.111" y1="35.885" x2="35.781" y2="42.124"/>
		
			<line fill-rule="evenodd" clip-rule="evenodd" fill="none" stroke="#FF6633" stroke-width="2" stroke-linecap="round" stroke-linejoin="round" stroke-miterlimit="10" x1="26.202" y1="27.977" x2="30.767" y2="23.412"/>
		
			<line fill-rule="evenodd" clip-rule="evenodd" fill="none" stroke="#FF6633" stroke-width="2" stroke-linecap="round" stroke-linejoin="round" stroke-miterlimit="10" x1="18.293" y1="20.067" x2="22.857" y2="15.503"/>
		
			<line fill-rule="evenodd" clip-rule="evenodd" fill="none" stroke="#FF6633" stroke-width="2" stroke-linecap="round" stroke-linejoin="round" stroke-miterlimit="10" x1="31.878" y1="35.287" x2="34.111" y2="35.885"/>
	</g>
	<g clip-path="url(#SVGID_2_)">
		<path fill="none" stroke="#FDFDFD" stroke-width="2" stroke-linecap="round" stroke-linejoin="round" stroke-miterlimit="10" d="
			M1.463,27.667c-3.258-3.259-3.258-8.541,0-11.798c3.258-3.258,8.54-3.258,11.798,0"/>
		<path fill="none" stroke="#FDFDFD" stroke-width="2" stroke-linecap="round" stroke-linejoin="round" stroke-miterlimit="10" d="
			M13.321,15.93L25.252,4l23.728,23.728L31.15,45.557c-3.258,3.258-8.54,3.258-11.798,0c-3.259-3.259-3.259-8.54,0-11.799
			c2.972-2.971,7.824-3.508,10.894-0.785"/>
		
			<line fill="none" stroke="#FDFDFD" stroke-width="2" stroke-linecap="round" stroke-linejoin="round" stroke-miterlimit="10" x1="19.353" y1="45.557" x2="1.523" y2="27.728"/>
		<path fill="none" stroke="#FDFDFD" stroke-width="2" stroke-linecap="round" stroke-linejoin="round" stroke-miterlimit="10" d="
			M30.06,32.638c2.885,3.379,2.694,6.907-0.261,9.904c-2.255,2.288-4.977,2.073-7.252,0.498c-2.149-1.487-2.228-5.21-0.312-6.924
			c1.533-1.371,4.229-1.506,5.679,0c0.779,0.808,1.576,2.84-0.524,4.474c-1.039,0.808-2.976-0.117-2.801-1.459"/>
		
			<line fill="none" stroke="#FDFDFD" stroke-width="2" stroke-linecap="round" stroke-linejoin="round" stroke-miterlimit="10" x1="13.32" y1="15.932" x2="30.045" y2="32.652"/>
		
			<line fill-rule="evenodd" clip-rule="evenodd" fill="none" stroke="#FDFDFD" stroke-width="2" stroke-linecap="round" stroke-linejoin="round" stroke-miterlimit="10" x1="28.597" y1="16.473" x2="33.161" y2="11.909"/>
		
			<line fill-rule="evenodd" clip-rule="evenodd" fill="none" stroke="#FDFDFD" stroke-width="2" stroke-linecap="round" stroke-linejoin="round" stroke-miterlimit="10" x1="20.688" y1="8.564" x2="22.357" y2="14.803"/>
		
			<line fill-rule="evenodd" clip-rule="evenodd" fill="none" stroke="#FDFDFD" stroke-width="2" stroke-linecap="round" stroke-linejoin="round" stroke-miterlimit="10" x1="22.357" y1="14.803" x2="28.597" y2="16.473"/>
		
			<line fill-rule="evenodd" clip-rule="evenodd" fill="none" stroke="#FDFDFD" stroke-width="2" stroke-linecap="round" stroke-linejoin="round" stroke-miterlimit="10" x1="28.597" y1="16.473" x2="30.267" y2="22.712"/>
		
			<line fill-rule="evenodd" clip-rule="evenodd" fill="none" stroke="#FDFDFD" stroke-width="2" stroke-linecap="round" stroke-linejoin="round" stroke-miterlimit="10" x1="30.267" y1="22.712" x2="36.505" y2="24.382"/>
		
			<line fill-rule="evenodd" clip-rule="evenodd" fill="none" stroke="#FDFDFD" stroke-width="2" stroke-linecap="round" stroke-linejoin="round" stroke-miterlimit="10" x1="36.506" y1="24.382" x2="41.07" y2="19.818"/>
		
			<line fill-rule="evenodd" clip-rule="evenodd" fill="none" stroke="#FDFDFD" stroke-width="2" stroke-linecap="round" stroke-linejoin="round" stroke-miterlimit="10" x1="36.505" y1="24.382" x2="38.176" y2="30.621"/>
		
			<line fill-rule="evenodd" clip-rule="evenodd" fill="none" stroke="#FDFDFD" stroke-width="2" stroke-linecap="round" stroke-linejoin="round" stroke-miterlimit="10" x1="38.176" y1="30.621" x2="44.415" y2="32.29"/>
		
			<line fill-rule="evenodd" clip-rule="evenodd" fill="none" stroke="#FDFDFD" stroke-width="2" stroke-linecap="round" stroke-linejoin="round" stroke-miterlimit="10" x1="38.176" y1="30.621" x2="33.611" y2="35.186"/>
		
			<line fill-rule="evenodd" clip-rule="evenodd" fill="none" stroke="#FDFDFD" stroke-width="2" stroke-linecap="round" stroke-linejoin="round" stroke-miterlimit="10" x1="33.611" y1="35.185" x2="35.281" y2="41.424"/>
		
			<line fill-rule="evenodd" clip-rule="evenodd" fill="none" stroke="#FDFDFD" stroke-width="2" stroke-linecap="round" stroke-linejoin="round" stroke-miterlimit="10" x1="25.702" y1="27.275" x2="30.267" y2="22.712"/>
		
			<line fill-rule="evenodd" clip-rule="evenodd" fill="none" stroke="#FDFDFD" stroke-width="2" stroke-linecap="round" stroke-linejoin="round" stroke-miterlimit="10" x1="17.793" y1="19.367" x2="22.357" y2="14.803"/>
		
			<line fill-rule="evenodd" clip-rule="evenodd" fill="none" stroke="#FDFDFD" stroke-width="2" stroke-linecap="round" stroke-linejoin="round" stroke-miterlimit="10" x1="31.378" y1="34.586" x2="33.611" y2="35.185"/>
	</g>
</g>
</svg>
