<?xml version="1.0" encoding="utf-8"?>
<!-- Generator: Adobe Illustrator 16.0.0, SVG Export Plug-In . SVG Version: 6.00 Build 0)  -->
<!DOCTYPE svg PUBLIC "-//W3C//DTD SVG 1.1//EN" "http://www.w3.org/Graphics/SVG/1.1/DTD/svg11.dtd">
<svg version="1.1" id="Layer_1" xmlns="http://www.w3.org/2000/svg" xmlns:xlink="http://www.w3.org/1999/xlink" x="0px" y="0px"
	 width="42px" height="42px" viewBox="0 0 42 42" enable-background="new 0 0 42 42" xml:space="preserve">
<g>
	<defs>
		<path id="SVGID_1_" d="M42,38c0,2.209-1.791,4-4,4H4c-2.209,0-4-1.791-4-4V4c0-2.209,1.791-4,4-4h34c2.209,0,4,1.791,4,4V38z"/>
	</defs>
	<clipPath id="SVGID_2_">
		<use xlink:href="#SVGID_1_"  overflow="visible"/>
	</clipPath>
	<linearGradient id="SVGID_3_" gradientUnits="userSpaceOnUse" x1="1.1724" y1="40.8291" x2="40.8289" y2="1.1726">
		<stop  offset="0" style="stop-color:#FFA385"/>
		<stop  offset="1" style="stop-color:#FF6633"/>
	</linearGradient>
	<path clip-path="url(#SVGID_2_)" fill-rule="evenodd" clip-rule="evenodd" fill="url(#SVGID_3_)" d="M42,38c0,2.209-1.791,4-4,4H4
		c-2.209,0-4-1.791-4-4V4c0-2.209,1.791-4,4-4h34c2.209,0,4,1.791,4,4V38z"/>
	<g clip-path="url(#SVGID_2_)">
		<path fill="none" stroke="#FF6633" stroke-width="2" stroke-linecap="round" stroke-linejoin="round" stroke-miterlimit="10" d="
			M9.5,15.7c4.443,2.55,9.559,4,15,4s10.557-1.45,15-4"/>
		
			<polygon fill="none" stroke="#FF6633" stroke-width="2" stroke-linecap="round" stroke-linejoin="round" stroke-miterlimit="10" points="
			24.496,4.137 24.498,4.137 24.5,4.137 		"/>
		<path fill="none" stroke="#FF6633" stroke-width="2" stroke-linecap="round" stroke-linejoin="round" stroke-miterlimit="10" d="
			M14,18.2c-0.217,1.767-0.658,4.68,1,6.5l1,4.5c0,0,4.061,5,8.5,5"/>
		<path fill="none" stroke="#FF6633" stroke-width="2" stroke-linecap="round" stroke-linejoin="round" stroke-miterlimit="10" d="
			M20,6.2c-3.569,1.967-6,4.779-6,10"/>
		<path fill="none" stroke="#FF6633" stroke-width="2" stroke-linecap="round" stroke-linejoin="round" stroke-miterlimit="10" d="
			M35,18.2c0.217,1.767,0.658,4.68-1,6.5l-1,4.5c0,0-4.061,5-8.5,5"/>
		<path fill="none" stroke="#FF6633" stroke-width="2" stroke-linecap="round" stroke-linejoin="round" stroke-miterlimit="10" d="
			M29,6.2c3.569,1.967,6,4.779,6,10"/>
		<path fill="none" stroke="#FF6633" stroke-width="2" stroke-linecap="round" stroke-linejoin="round" stroke-miterlimit="10" d="
			M29.027,14.401c-1.586-2.332-2.508-5.039-2.508-7.936c0-0.702,0.059-1.393,0.164-2.069C25.98,4.242,25.256,4.137,24.5,4.137
			c-0.758,0-1.48,0.104-2.184,0.259c0.105,0.677,0.164,1.367,0.164,2.069c0,2.896-0.922,5.604-2.508,7.936"/>
		<path fill="none" stroke="#FF6633" stroke-width="2" stroke-linecap="round" stroke-linejoin="round" stroke-miterlimit="10" d="
			M44.239,38.094c-2.717-2.067-6.005-3.802-9.745-4.894c-1.516,1.876-3.803,3.222-6.478,3.86L24.5,44.509l-3.517-7.448
			c-2.673-0.639-4.958-1.984-6.474-3.86c-3.744,1.092-7.028,2.826-9.745,4.894C4.243,38.49,3.843,38.949,3.5,39.43v5.281
			c3.771,1.952,8.441,3.377,13.641,4.081c2.382,0.24,4.822,0.408,7.359,0.408c2.498,0,4.896-0.163,7.242-0.396
			c5.246-0.701,9.959-2.139,13.758-4.109v-5.269C45.161,38.947,44.761,38.49,44.239,38.094z"/>
	</g>
	<g clip-path="url(#SVGID_2_)">
		<path fill="none" stroke="#FDFDFD" stroke-width="2" stroke-linecap="round" stroke-linejoin="round" stroke-miterlimit="10" d="
			M9,15c4.443,2.55,9.559,4,15,4s10.557-1.45,15-4"/>
		
			<polygon fill="none" stroke="#FDFDFD" stroke-width="2" stroke-linecap="round" stroke-linejoin="round" stroke-miterlimit="10" points="
			23.996,3.437 23.998,3.437 24,3.437 		"/>
		<path fill="none" stroke="#FDFDFD" stroke-width="2" stroke-linecap="round" stroke-linejoin="round" stroke-miterlimit="10" d="
			M13.5,17.5c-0.217,1.767-0.658,4.68,1,6.5l1,4.5c0,0,4.061,5,8.5,5"/>
		<path fill="none" stroke="#FDFDFD" stroke-width="2" stroke-linecap="round" stroke-linejoin="round" stroke-miterlimit="10" d="
			M19.5,5.5c-3.569,1.967-6,4.779-6,10"/>
		<path fill="none" stroke="#FDFDFD" stroke-width="2" stroke-linecap="round" stroke-linejoin="round" stroke-miterlimit="10" d="
			M34.5,17.5c0.217,1.767,0.658,4.68-1,6.5l-1,4.5c0,0-4.061,5-8.5,5"/>
		<path fill="none" stroke="#FDFDFD" stroke-width="2" stroke-linecap="round" stroke-linejoin="round" stroke-miterlimit="10" d="
			M28.5,5.5c3.569,1.967,6,4.779,6,10"/>
		<path fill="none" stroke="#FDFDFD" stroke-width="2" stroke-linecap="round" stroke-linejoin="round" stroke-miterlimit="10" d="
			M28.527,13.701c-1.586-2.332-2.508-5.039-2.508-7.936c0-0.702,0.059-1.393,0.164-2.069C25.48,3.542,24.756,3.437,24,3.437
			c-0.758,0-1.48,0.104-2.184,0.259c0.105,0.677,0.164,1.367,0.164,2.069c0,2.896-0.922,5.604-2.508,7.936"/>
		<path fill="none" stroke="#FDFDFD" stroke-width="2" stroke-linecap="round" stroke-linejoin="round" stroke-miterlimit="10" d="
			M43.739,37.395c-2.717-2.068-6.005-3.803-9.745-4.895c-1.516,1.877-3.803,3.223-6.478,3.861L24,43.809l-3.517-7.449
			c-2.673-0.639-4.958-1.984-6.474-3.859c-3.744,1.092-7.028,2.826-9.745,4.895C3.743,37.791,3.343,38.25,3,38.729v5.28
			c3.771,1.953,8.441,3.379,13.641,4.082C19.022,48.332,21.463,48.5,24,48.5c2.498,0,4.896-0.164,7.242-0.396
			c5.246-0.702,9.959-2.139,13.758-4.109v-5.269C44.661,38.248,44.261,37.791,43.739,37.395z"/>
	</g>
</g>
</svg>
