<?xml version="1.0" encoding="utf-8"?>
<!-- Generator: Adobe Illustrator 16.0.0, SVG Export Plug-In . SVG Version: 6.00 Build 0)  -->
<!DOCTYPE svg PUBLIC "-//W3C//DTD SVG 1.0//EN" "http://www.w3.org/TR/2001/REC-SVG-20010904/DTD/svg10.dtd">
<svg version="1.0" id="Layer_1" xmlns="http://www.w3.org/2000/svg" xmlns:xlink="http://www.w3.org/1999/xlink" x="0px" y="0px"
	 width="42px" height="42px" viewBox="0 0 42 42" enable-background="new 0 0 42 42" xml:space="preserve">
<g>
	<defs>
		<path id="SVGID_1_" d="M42,38c0,2.209-1.791,4-4,4H4c-2.209,0-4-1.791-4-4V4c0-2.209,1.791-4,4-4h34c2.209,0,4,1.791,4,4V38z"/>
	</defs>
	<clipPath id="SVGID_2_">
		<use xlink:href="#SVGID_1_"  overflow="visible"/>
	</clipPath>
	<linearGradient id="SVGID_3_" gradientUnits="userSpaceOnUse" x1="1.1719" y1="40.8291" x2="40.8287" y2="1.1723">
		<stop  offset="0" style="stop-color:#FFA385"/>
		<stop  offset="1" style="stop-color:#FF6633"/>
	</linearGradient>
	<path clip-path="url(#SVGID_2_)" fill-rule="evenodd" clip-rule="evenodd" fill="url(#SVGID_3_)" d="M42,38c0,2.209-1.791,4-4,4H4
		c-2.209,0-4-1.791-4-4V4c0-2.209,1.791-4,4-4h34c2.209,0,4,1.791,4,4V38z"/>
	<g clip-path="url(#SVGID_2_)">
		<path fill="none" stroke="#FF6633" stroke-width="2" stroke-linecap="round" stroke-linejoin="round" stroke-miterlimit="10" d="
			M1.962,28.367c-3.259-3.258-3.259-8.541,0-11.799c3.258-3.258,8.54-3.258,11.797,0"/>
		
			<line fill="none" stroke="#FF6633" stroke-width="2" stroke-linecap="round" stroke-linejoin="round" stroke-miterlimit="10" x1="19.85" y1="46.258" x2="2.022" y2="28.428"/>
		<path fill="none" stroke="#FF6633" stroke-width="2" stroke-linecap="round" stroke-linejoin="round" stroke-miterlimit="10" d="
			M30.558,33.338c2.885,3.379,2.694,6.906-0.26,9.904c-2.256,2.289-4.976,2.074-7.253,0.498c-2.148-1.488-2.227-5.211-0.311-6.924
			c1.531-1.371,4.229-1.506,5.679,0c0.778,0.809,1.575,2.84-0.525,4.475c-1.039,0.807-2.976-0.117-2.8-1.459"/>
		
			<line fill="none" stroke="#FF6633" stroke-width="2" stroke-linecap="round" stroke-linejoin="round" stroke-miterlimit="10" x1="13.818" y1="16.631" x2="30.544" y2="33.352"/>
		<path fill="none" stroke="#FF6633" stroke-width="2" stroke-linecap="round" stroke-linejoin="round" stroke-miterlimit="10" d="
			M13.82,16.629L25.75,4.701l23.729,23.727L31.649,46.256c-3.259,3.26-8.539,3.26-11.8,0.002"/>
		<path fill="none" stroke="#FF6633" stroke-width="2" stroke-linecap="round" stroke-linejoin="round" stroke-miterlimit="10" d="
			M19.85,46.258c-3.257-3.26-3.257-8.541,0-11.799c2.974-2.971,7.825-3.51,10.895-0.785"/>
	</g>
	<g clip-path="url(#SVGID_2_)">
		<path fill="none" stroke="#FDFDFD" stroke-width="2" stroke-linecap="round" stroke-linejoin="round" stroke-miterlimit="10" d="
			M1.464,27.667c-3.259-3.259-3.259-8.541,0-11.799c3.258-3.258,8.54-3.258,11.797,0"/>
		
			<line fill="none" stroke="#FDFDFD" stroke-width="2" stroke-linecap="round" stroke-linejoin="round" stroke-miterlimit="10" x1="19.352" y1="45.557" x2="1.524" y2="27.728"/>
		<path fill="none" stroke="#FDFDFD" stroke-width="2" stroke-linecap="round" stroke-linejoin="round" stroke-miterlimit="10" d="
			M30.06,32.638c2.885,3.379,2.694,6.906-0.26,9.904c-2.256,2.288-4.976,2.073-7.253,0.498c-2.148-1.488-2.227-5.211-0.311-6.924
			c1.532-1.372,4.229-1.506,5.679,0c0.778,0.808,1.575,2.839-0.525,4.474c-1.04,0.808-2.976-0.117-2.8-1.459"/>
		
			<line fill="none" stroke="#FDFDFD" stroke-width="2" stroke-linecap="round" stroke-linejoin="round" stroke-miterlimit="10" x1="13.321" y1="15.931" x2="30.046" y2="32.651"/>
		<path fill="none" stroke="#FDFDFD" stroke-width="2" stroke-linecap="round" stroke-linejoin="round" stroke-miterlimit="10" d="
			M13.322,15.929L25.252,4L48.98,27.728L31.15,45.556c-3.258,3.259-8.538,3.259-11.799,0.001"/>
		<path fill="none" stroke="#FDFDFD" stroke-width="2" stroke-linecap="round" stroke-linejoin="round" stroke-miterlimit="10" d="
			M19.352,45.557c-3.257-3.259-3.257-8.541,0-11.799c2.974-2.971,7.825-3.509,10.895-0.785"/>
	</g>
</g>
</svg>
