<?xml version="1.0" encoding="utf-8"?>
<!-- Generator: Adobe Illustrator 16.0.0, SVG Export Plug-In . SVG Version: 6.00 Build 0)  -->
<!DOCTYPE svg PUBLIC "-//W3C//DTD SVG 1.0//EN" "http://www.w3.org/TR/2001/REC-SVG-20010904/DTD/svg10.dtd">
<svg version="1.0" id="Layer_1" xmlns="http://www.w3.org/2000/svg" xmlns:xlink="http://www.w3.org/1999/xlink" x="0px" y="0px"
	 width="42px" height="42px" viewBox="0 0 42 42" enable-background="new 0 0 42 42" xml:space="preserve">
<path fill-rule="evenodd" clip-rule="evenodd" fill="#CCCCCC" d="M42,38c0,2.209-1.791,4-4,4H4c-2.209,0-4-1.791-4-4V4
	c0-2.209,1.791-4,4-4h34c2.209,0,4,1.791,4,4V38z"/>
<g>
	<path fill="none" stroke="#FDFDFD" stroke-width="2" stroke-linecap="round" stroke-linejoin="round" stroke-miterlimit="10" d="
		M33.661,50c0-5.802-0.636-8.823-3.012-14.799h-0.017c-1.031-2.404-1.379-4.358-1.379-5.328c0-1.08,0.192-2.117,0.547-3.077
		l3.662-9.536c0.572-1.684-0.106-3.708-1.933-4.28l-4.397-1.414c-1.457-0.388-2.562-1.828-2.562-3.455V6h-7.143v2.11
		c0,1.627-1.104,3.067-2.562,3.455l-4.398,1.414c-1.825,0.573-2.505,2.597-1.932,4.28l3.662,9.536
		c0.354,0.96,0.547,1.997,0.547,3.077c0,0.97-0.349,2.924-1.379,5.328H11.35C8.975,41.177,8.339,44.198,8.339,50H33.661z"/>
	
		<line fill="none" stroke="#FDFDFD" stroke-width="2" stroke-linecap="round" stroke-linejoin="round" stroke-miterlimit="10" x1="12.746" y1="29.873" x2="29.254" y2="29.873"/>
	
		<line fill="none" stroke="#FDFDFD" stroke-width="2" stroke-linecap="round" stroke-linejoin="round" stroke-miterlimit="10" x1="21" y1="36.503" x2="31.149" y2="36.503"/>
	
		<line fill="none" stroke="#FDFDFD" stroke-width="2" stroke-linecap="round" stroke-linejoin="round" stroke-miterlimit="10" x1="21" y1="42.995" x2="33.016" y2="42.995"/>
	
		<line fill="none" stroke="#FDFDFD" stroke-width="2" stroke-linecap="round" stroke-linejoin="round" stroke-miterlimit="10" x1="21" y1="23.38" x2="31.112" y2="23.38"/>
	
		<line fill="none" stroke="#FDFDFD" stroke-width="2" stroke-linecap="round" stroke-linejoin="round" stroke-miterlimit="10" x1="21" y1="16.888" x2="33.566" y2="16.888"/>
</g>
</svg>
