<?xml version="1.0" encoding="utf-8"?>
<!-- Generator: Adobe Illustrator 16.0.0, SVG Export Plug-In . SVG Version: 6.00 Build 0)  -->
<!DOCTYPE svg PUBLIC "-//W3C//DTD SVG 1.1//EN" "http://www.w3.org/Graphics/SVG/1.1/DTD/svg11.dtd">
<svg version="1.1" id="Layer_1" xmlns="http://www.w3.org/2000/svg" xmlns:xlink="http://www.w3.org/1999/xlink" x="0px" y="0px"
	 width="42px" height="42px" viewBox="0 0 42 42" enable-background="new 0 0 42 42" xml:space="preserve">
<g>
	<defs>
		<path id="SVGID_1_" d="M42,38c0,2.209-1.791,4-4,4H4c-2.209,0-4-1.791-4-4V4c0-2.209,1.791-4,4-4h34c2.209,0,4,1.791,4,4V38z"/>
	</defs>
	<clipPath id="SVGID_2_">
		<use xlink:href="#SVGID_1_"  overflow="visible"/>
	</clipPath>
	<linearGradient id="SVGID_3_" gradientUnits="userSpaceOnUse" x1="1.1724" y1="40.8291" x2="40.8289" y2="1.1726">
		<stop  offset="0" style="stop-color:#FFA385"/>
		<stop  offset="1" style="stop-color:#FF6633"/>
	</linearGradient>
	<path clip-path="url(#SVGID_2_)" fill-rule="evenodd" clip-rule="evenodd" fill="url(#SVGID_3_)" d="M42,38c0,2.209-1.791,4-4,4H4
		c-2.209,0-4-1.791-4-4V4c0-2.209,1.791-4,4-4h34c2.209,0,4,1.791,4,4V38z"/>
	<g clip-path="url(#SVGID_2_)">
		<path fill="none" stroke="#FF6633" stroke-width="2" stroke-linecap="round" stroke-linejoin="round" stroke-miterlimit="10" d="
			M44.239,37.094c-2.717-2.067-6.005-3.802-9.745-4.894c-2.148,2.657-5.822,4.282-9.994,4.282s-7.842-1.625-9.99-4.282
			c-3.744,1.092-7.028,2.826-9.745,4.894C4.243,37.49,3.843,37.949,3.5,38.43v5.281c3.771,1.952,8.441,3.377,13.641,4.081
			c2.382,0.24,4.822,0.408,7.359,0.408c2.498,0,4.896-0.163,7.242-0.396c5.246-0.701,9.959-2.139,13.758-4.109v-5.269
			C45.161,37.947,44.761,37.49,44.239,37.094z"/>
		<path fill="none" stroke="#FF6633" stroke-width="2" stroke-linecap="round" stroke-linejoin="round" stroke-miterlimit="10" d="
			M33.602,20.964v-1.312c-2.766-1.256-5.828-1.973-9.062-1.973c-3.266,0-6.355,0.732-9.141,2.01v1.275"/>
		<path fill="none" stroke="#FF6633" stroke-width="2" stroke-linecap="round" stroke-linejoin="round" stroke-miterlimit="10" d="
			M15.404,27.084c0,0.002,2.596,6.116,9.051,6.116h0.094c6.449,0,9.047-6.114,9.047-6.116l0.296-2.848h1.206
			c0,0,2.902,0.226,2.902-2.061c0,0,0-2.072,0-3.331c0-1.258-1.465-3.018-1.593-4.486C36.013,9.808,34.479,4.2,24.5,4.2
			S12.987,9.808,12.593,14.359C12.465,15.828,11,17.587,11,18.845c0,1.259,0,3.331,0,3.331c0,2.286,2.902,2.061,2.902,2.061h1.21
			L15.404,27.084z"/>
	</g>
	<g clip-path="url(#SVGID_2_)">
		<path fill="none" stroke="#FDFDFD" stroke-width="2" stroke-linecap="round" stroke-linejoin="round" stroke-miterlimit="10" d="
			M43.739,36.395c-2.717-2.068-6.005-3.803-9.745-4.895c-2.148,2.657-5.822,4.282-9.994,4.282s-7.842-1.625-9.99-4.282
			c-3.744,1.092-7.028,2.826-9.745,4.895C3.743,36.791,3.343,37.25,3,37.729v5.28c3.771,1.953,8.441,3.379,13.641,4.082
			C19.022,47.332,21.463,47.5,24,47.5c2.498,0,4.896-0.164,7.242-0.396c5.246-0.702,9.959-2.139,13.758-4.109v-5.269
			C44.661,37.248,44.261,36.791,43.739,36.395z"/>
		<path fill="none" stroke="#FDFDFD" stroke-width="2" stroke-linecap="round" stroke-linejoin="round" stroke-miterlimit="10" d="
			M33.102,20.264v-1.312c-2.766-1.256-5.828-1.973-9.062-1.973c-3.266,0-6.355,0.732-9.141,2.01v1.275"/>
		<path fill="none" stroke="#FDFDFD" stroke-width="2" stroke-linecap="round" stroke-linejoin="round" stroke-miterlimit="10" d="
			M14.904,26.385c0,0,2.596,6.115,9.051,6.115h0.094c6.449,0,9.047-6.115,9.047-6.115l0.296-2.85h1.206c0,0,2.902,0.227,2.902-2.06
			c0,0,0-2.072,0-3.331c0-1.258-1.465-3.018-1.593-4.486C35.513,9.107,33.979,3.5,24,3.5S12.487,9.107,12.093,13.659
			c-0.128,1.468-1.593,3.228-1.593,4.486c0,1.259,0,3.331,0,3.331c0,2.286,2.902,2.06,2.902,2.06h1.21L14.904,26.385z"/>
	</g>
</g>
</svg>
