<?xml version="1.0" encoding="utf-8"?>
<!-- Generator: Adobe Illustrator 16.0.0, SVG Export Plug-In . SVG Version: 6.00 Build 0)  -->
<!DOCTYPE svg PUBLIC "-//W3C//DTD SVG 1.1//EN" "http://www.w3.org/Graphics/SVG/1.1/DTD/svg11.dtd">
<svg version="1.1" id="Layer_1" xmlns="http://www.w3.org/2000/svg" xmlns:xlink="http://www.w3.org/1999/xlink" x="0px" y="0px"
	 width="42px" height="42px" viewBox="0 0 42 42" enable-background="new 0 0 42 42" xml:space="preserve">
<g>
	<g>
		<defs>
			<path id="SVGID_1_" d="M42,38c0,2.209-1.791,4-4,4H4c-2.209,0-4-1.791-4-4V4c0-2.209,1.791-4,4-4h34c2.209,0,4,1.791,4,4V38z"/>
		</defs>
		<clipPath id="SVGID_2_">
			<use xlink:href="#SVGID_1_"  overflow="visible"/>
		</clipPath>
		<path clip-path="url(#SVGID_2_)" fill="#CCCCCC" d="M42,38c0,2.209-1.791,4-4,4H4c-2.209,0-4-1.791-4-4V4c0-2.209,1.791-4,4-4h34
			c2.209,0,4,1.791,4,4V38z"/>
	</g>
	<g>
		<defs>
			<path id="SVGID_3_" d="M42,38c0,2.209-1.791,4-4,4H4c-2.209,0-4-1.791-4-4V4c0-2.209,1.791-4,4-4h34c2.209,0,4,1.791,4,4V38z"/>
		</defs>
		<clipPath id="SVGID_4_">
			<use xlink:href="#SVGID_3_"  overflow="visible"/>
		</clipPath>
	</g>
	<g>
		<defs>
			<path id="SVGID_5_" d="M42,38c0,2.209-1.791,4-4,4H4c-2.209,0-4-1.791-4-4V4c0-2.209,1.791-4,4-4h34c2.209,0,4,1.791,4,4V38z"/>
		</defs>
		<clipPath id="SVGID_6_">
			<use xlink:href="#SVGID_5_"  overflow="visible"/>
		</clipPath>
		<g clip-path="url(#SVGID_6_)">
			<g>
				
					<path fill="none" stroke="#FDFDFD" stroke-width="2" stroke-linecap="round" stroke-linejoin="round" stroke-miterlimit="10" d="
					M24.5,37.723c0-4.041,2.982-5.301,2.982-9.802c0-3.278-1.137-6.581-7.724-6.826c-8.253-0.306-7.187,9.788-11.798,9.788
					c0,0-1.538-0.095-1.538-1.691V15.839c0-1.208,1.601-1.208,1.601-1.208c2.434,0,3.172,3.141,7.61,3.141
					c4.439,0,9.704-3.141,14.439-3.141c6.393,0,5.729,2.886,7.081,3.491c1.072,0.48,2.346-0.121,2.346-2.143v-3.455
					c0-0.415,0.346-0.752,0.768-0.752h1.539c0.426,0,0.771,0.337,0.771,0.752V28.32c0,0.414-0.345,0.752-0.771,0.752h-1.539
					c-0.422,0-0.768-0.338-0.768-0.752v-4.986c-0.695-1.396-2.969-0.832-2.969,1.339v13.05"/>
				
					<line fill="none" stroke="#FDFDFD" stroke-width="2" stroke-linecap="round" stroke-linejoin="round" stroke-miterlimit="10" x1="7.962" y1="30.883" x2="7.962" y2="33.961"/>
				
					<line fill="none" stroke="#FDFDFD" stroke-width="2" stroke-linecap="round" stroke-linejoin="round" stroke-miterlimit="10" x1="7.962" y1="12.455" x2="7.962" y2="14.03"/>
			</g>
			<path fill="none" stroke="#FDFDFD" stroke-width="2" stroke-linecap="round" stroke-linejoin="round" stroke-miterlimit="10" d="
				M44.5,45.244c0,1.246-1.034,2.256-2.309,2.256H6.808c-1.273,0-2.308-1.01-2.308-2.256v-5.266c0-1.246,1.034-2.256,2.308-2.256
				h35.385c1.272,0,2.308,1.01,2.308,2.256L44.5,45.244L44.5,45.244z"/>
			<path fill="none" stroke="#FDFDFD" stroke-width="2" stroke-linecap="round" stroke-linejoin="round" stroke-miterlimit="10" d="
				M33.202,10.646c0,0.623-0.517,1.127-1.154,1.127h-2.69c-0.639,0-1.154-0.505-1.154-1.127V4.628c0-0.623,0.518-1.128,1.154-1.128
				h2.69c0.638,0,1.154,0.505,1.154,1.128V10.646z"/>
		</g>
	</g>
</g>
</svg>
