<?xml version="1.0" encoding="utf-8"?>
<!-- Generator: Adobe Illustrator 16.0.0, SVG Export Plug-In . SVG Version: 6.00 Build 0)  -->
<!DOCTYPE svg PUBLIC "-//W3C//DTD SVG 1.0//EN" "http://www.w3.org/TR/2001/REC-SVG-20010904/DTD/svg10.dtd">
<svg version="1.0" id="Layer_1" xmlns="http://www.w3.org/2000/svg" xmlns:xlink="http://www.w3.org/1999/xlink" x="0px" y="0px"
	 width="42px" height="42px" viewBox="0 0 42 42" enable-background="new 0 0 42 42" xml:space="preserve">
<path fill-rule="evenodd" clip-rule="evenodd" fill="#CCCCCC" d="M42,38c0,2.209-1.791,4-4,4H4c-2.209,0-4-1.791-4-4V4
	c0-2.209,1.791-4,4-4h34c2.209,0,4,1.791,4,4V38z"/>
<g>
	
		<polyline fill="none" stroke="#FDFDFD" stroke-width="2" stroke-linecap="round" stroke-linejoin="round" stroke-miterlimit="10" points="
		43.13,24.892 43.13,44 11.258,44 11.258,25.001 	"/>
	
		<polyline fill="none" stroke="#FDFDFD" stroke-width="2" stroke-linecap="round" stroke-linejoin="round" stroke-miterlimit="10" points="
		35.16,24.427 35.16,36.032 19.225,36.032 19.225,24.425 	"/>
	<path fill="none" stroke="#FDFDFD" stroke-width="2" stroke-linecap="round" stroke-linejoin="round" stroke-miterlimit="10" d="
		M16.078,20.436C15.627,23.029,13.366,25,10.645,25c-3.047,0-5.516-2.47-5.516-5.516c0-0.958,0.245-1.86,0.674-2.645"/>
	<path fill="none" stroke="#FDFDFD" stroke-width="2" stroke-linecap="round" stroke-linejoin="round" stroke-miterlimit="10" d="
		M27.194,19.484c0,3.046-2.47,5.516-5.517,5.516c-2.885,0-5.255-2.216-5.498-5.038"/>
	
		<line fill="none" stroke="#FDFDFD" stroke-width="2" stroke-linecap="round" stroke-linejoin="round" stroke-miterlimit="10" x1="16.078" y1="20.432" x2="17.354" y2="14.581"/>
	
		<line fill="none" stroke="#FDFDFD" stroke-width="2" stroke-linecap="round" stroke-linejoin="round" stroke-miterlimit="10" x1="27.194" y1="14.581" x2="27.194" y2="19.484"/>
	<path fill="none" stroke="#FDFDFD" stroke-width="2" stroke-linecap="round" stroke-linejoin="round" stroke-miterlimit="10" d="
		M38.309,20.436C38.759,23.029,41.021,25,43.741,25c3.048,0,5.518-2.47,5.518-5.516c0-0.958-0.245-1.86-0.673-2.645"/>
	<path fill="none" stroke="#FDFDFD" stroke-width="2" stroke-linecap="round" stroke-linejoin="round" stroke-miterlimit="10" d="
		M27.194,19.484c0,3.046,2.468,5.516,5.516,5.516c2.884,0,5.253-2.216,5.495-5.038"/>
	
		<line fill="none" stroke="#FDFDFD" stroke-width="2" stroke-linecap="round" stroke-linejoin="round" stroke-miterlimit="10" x1="38.309" y1="20.432" x2="37.031" y2="14.581"/>
	
		<polyline fill="none" stroke="#FDFDFD" stroke-width="2" stroke-linecap="round" stroke-linejoin="round" stroke-miterlimit="10" points="
		48.752,17.17 43.13,6 11.258,6 5.637,17.17 	"/>
</g>
</svg>
