<?xml version="1.0" encoding="utf-8"?>
<!-- Generator: Adobe Illustrator 16.0.0, SVG Export Plug-In . SVG Version: 6.00 Build 0)  -->
<!DOCTYPE svg PUBLIC "-//W3C//DTD SVG 1.1//EN" "http://www.w3.org/Graphics/SVG/1.1/DTD/svg11.dtd">
<svg version="1.1" id="Layer_1" xmlns="http://www.w3.org/2000/svg" xmlns:xlink="http://www.w3.org/1999/xlink" x="0px" y="0px"
	 width="42px" height="42px" viewBox="0 0 42 42" enable-background="new 0 0 42 42" xml:space="preserve">
<g>
	<defs>
		<path id="SVGID_1_" d="M42,38c0,2.209-1.791,4-4,4H4c-2.209,0-4-1.791-4-4V4c0-2.209,1.791-4,4-4h34c2.209,0,4,1.791,4,4V38z"/>
	</defs>
	<clipPath id="SVGID_2_">
		<use xlink:href="#SVGID_1_"  overflow="visible"/>
	</clipPath>
	<linearGradient id="SVGID_3_" gradientUnits="userSpaceOnUse" x1="1.1724" y1="40.8291" x2="40.8289" y2="1.1726">
		<stop  offset="0" style="stop-color:#FFA385"/>
		<stop  offset="1" style="stop-color:#FF6633"/>
	</linearGradient>
	<path clip-path="url(#SVGID_2_)" fill-rule="evenodd" clip-rule="evenodd" fill="url(#SVGID_3_)" d="M42,38c0,2.209-1.791,4-4,4H4
		c-2.209,0-4-1.791-4-4V4c0-2.209,1.791-4,4-4h34c2.209,0,4,1.791,4,4V38z"/>
	<g clip-path="url(#SVGID_2_)">
		
			<circle fill="none" stroke="#FF6633" stroke-width="2" stroke-linecap="round" stroke-linejoin="round" stroke-miterlimit="10" cx="15.792" cy="24.217" r="2.484"/>
		<path fill="none" stroke="#FF6633" stroke-width="2" stroke-linecap="round" stroke-linejoin="round" stroke-miterlimit="10" d="
			M32.646,15.03c0.57-1.007,0.902-2.169,0.902-3.41c0-3.822-3.098-6.92-6.919-6.92c-3.822,0-6.92,3.098-6.92,6.92
			c0,1.241,0.331,2.402,0.903,3.41"/>
		<path fill="none" stroke="#FF6633" stroke-width="2" stroke-linecap="round" stroke-linejoin="round" stroke-miterlimit="10" d="
			M17.346,17.417c5.128-5.128,13.439-5.128,18.567,0"/>
		<path fill="none" stroke="#FF6633" stroke-width="2" stroke-linecap="round" stroke-linejoin="round" stroke-miterlimit="10" d="
			M9.404,24.217H6.048c-0.784,0-1.42,0.637-1.42,1.42v5.678c0,0.783,0.636,1.42,1.42,1.42h3.357"/>
		<g>
			<g>
				
					<path fill="none" stroke="#FF6633" stroke-width="2" stroke-linecap="round" stroke-linejoin="round" stroke-miterlimit="10" d="
					M9.755,14.252c2.033-0.991,4.312-0.889,6.182,0.066"/>
				
					<path fill="none" stroke="#FF6633" stroke-width="2" stroke-linecap="round" stroke-linejoin="round" stroke-miterlimit="10" d="
					M12.282,18.038c-0.378-1.459-1.229-2.808-2.527-3.786"/>
			</g>
		</g>
		<path fill="none" stroke="#FF6633" stroke-width="2" stroke-linecap="round" stroke-linejoin="round" stroke-miterlimit="10" d="
			M12.282,18.052c-1.329,1.824-2.321,3.908-2.878,6.165"/>
		<g>
			<path fill="none" stroke="#FF6633" stroke-width="2" stroke-linecap="round" stroke-linejoin="round" stroke-miterlimit="10" d="
				M15.937,14.323c1.16-0.878,2.435-1.616,3.793-2.191"/>
			<path fill="none" stroke="#FF6633" stroke-width="2" stroke-linecap="round" stroke-linejoin="round" stroke-miterlimit="10" d="
				M33.528,12.129c6.37,2.692,10.844,8.997,10.844,16.348c0,4.701-1.835,8.973-4.82,12.146l2.034,4.17
				c0.342,0.705,0.051,1.555-0.655,1.898l-1.273,0.621l-0.001,0.001l-2.552,1.245c-0.472,0.23-1.008,0.169-1.414-0.105
				c-0.199-0.135-0.372-0.316-0.484-0.549l-1.532-3.143c-2.16,0.936-4.541,1.457-7.044,1.457c-2.504,0-4.884-0.522-7.044-1.457
				l-1.533,3.143c-0.108,0.223-0.271,0.398-0.459,0.531c-0.409,0.289-0.957,0.357-1.438,0.123l-2.552-1.245L13.6,47.312
				l-1.272-0.621c-0.704-0.344-0.996-1.194-0.652-1.898l2.033-4.17c-2.053-2.184-3.562-4.884-4.303-7.889"/>
		</g>
	</g>
	<g clip-path="url(#SVGID_2_)">
		
			<circle fill="none" stroke="#FDFDFD" stroke-width="2" stroke-linecap="round" stroke-linejoin="round" stroke-miterlimit="10" cx="15.292" cy="23.518" r="2.484"/>
		<path fill="none" stroke="#FDFDFD" stroke-width="2" stroke-linecap="round" stroke-linejoin="round" stroke-miterlimit="10" d="
			M32.146,14.33c0.57-1.007,0.902-2.169,0.902-3.41c0-3.822-3.098-6.92-6.919-6.92c-3.822,0-6.92,3.098-6.92,6.92
			c0,1.241,0.331,2.402,0.903,3.41"/>
		<path fill="none" stroke="#FDFDFD" stroke-width="2" stroke-linecap="round" stroke-linejoin="round" stroke-miterlimit="10" d="
			M16.846,16.717c5.128-5.128,13.439-5.128,18.567,0"/>
		<path fill="none" stroke="#FDFDFD" stroke-width="2" stroke-linecap="round" stroke-linejoin="round" stroke-miterlimit="10" d="
			M8.904,23.518H5.548c-0.784,0-1.42,0.635-1.42,1.419v5.678c0,0.784,0.636,1.419,1.42,1.419h3.357"/>
		<g>
			<g>
				
					<path fill="none" stroke="#FDFDFD" stroke-width="2" stroke-linecap="round" stroke-linejoin="round" stroke-miterlimit="10" d="
					M9.255,13.552c2.033-0.991,4.312-0.889,6.182,0.066"/>
				
					<path fill="none" stroke="#FDFDFD" stroke-width="2" stroke-linecap="round" stroke-linejoin="round" stroke-miterlimit="10" d="
					M11.782,17.338c-0.378-1.459-1.229-2.808-2.527-3.786"/>
			</g>
		</g>
		<path fill="none" stroke="#FDFDFD" stroke-width="2" stroke-linecap="round" stroke-linejoin="round" stroke-miterlimit="10" d="
			M11.782,17.352c-1.329,1.824-2.321,3.908-2.878,6.166"/>
		<g>
			<path fill="none" stroke="#FDFDFD" stroke-width="2" stroke-linecap="round" stroke-linejoin="round" stroke-miterlimit="10" d="
				M15.437,13.623c1.16-0.878,2.435-1.616,3.793-2.191"/>
			<path fill="none" stroke="#FDFDFD" stroke-width="2" stroke-linecap="round" stroke-linejoin="round" stroke-miterlimit="10" d="
				M33.028,11.429c6.37,2.692,10.844,8.997,10.844,16.347c0,4.703-1.835,8.973-4.82,12.148l2.034,4.17
				c0.342,0.704,0.051,1.553-0.655,1.897l-1.273,0.622h-0.001l-2.552,1.244c-0.472,0.23-1.008,0.17-1.414-0.104
				c-0.199-0.136-0.372-0.318-0.484-0.549l-1.532-3.144c-2.16,0.936-4.541,1.456-7.044,1.456c-2.504,0-4.884-0.521-7.044-1.457
				l-1.533,3.145c-0.108,0.221-0.271,0.396-0.459,0.529c-0.409,0.291-0.957,0.359-1.438,0.123l-2.552-1.244L13.1,46.611
				l-1.272-0.621c-0.704-0.344-0.996-1.193-0.652-1.896l2.033-4.172c-2.053-2.182-3.562-4.883-4.303-7.889"/>
		</g>
	</g>
</g>
</svg>
