<?xml version="1.0" encoding="utf-8"?>
<!-- Generator: Adobe Illustrator 16.0.0, SVG Export Plug-In . SVG Version: 6.00 Build 0)  -->
<!DOCTYPE svg PUBLIC "-//W3C//DTD SVG 1.1//EN" "http://www.w3.org/Graphics/SVG/1.1/DTD/svg11.dtd">
<svg version="1.1" id="Layer_1" xmlns="http://www.w3.org/2000/svg" xmlns:xlink="http://www.w3.org/1999/xlink" x="0px" y="0px"
	 width="42px" height="42px" viewBox="0 0 42 42" enable-background="new 0 0 42 42" xml:space="preserve">
<g>
	<g>
		<defs>
			<path id="SVGID_1_" d="M42,38c0,2.209-1.791,4-4,4H4c-2.209,0-4-1.791-4-4V4c0-2.209,1.791-4,4-4h34c2.209,0,4,1.791,4,4V38z"/>
		</defs>
		<clipPath id="SVGID_2_">
			<use xlink:href="#SVGID_1_"  overflow="visible"/>
		</clipPath>
		<path clip-path="url(#SVGID_2_)" fill="#CCCCCC" d="M42,38c0,2.209-1.791,4-4,4H4c-2.209,0-4-1.791-4-4V4c0-2.209,1.791-4,4-4h34
			c2.209,0,4,1.791,4,4V38z"/>
	</g>
	<g>
		<defs>
			<path id="SVGID_3_" d="M42,38c0,2.209-1.791,4-4,4H4c-2.209,0-4-1.791-4-4V4c0-2.209,1.791-4,4-4h34c2.209,0,4,1.791,4,4V38z"/>
		</defs>
		<clipPath id="SVGID_4_">
			<use xlink:href="#SVGID_3_"  overflow="visible"/>
		</clipPath>
	</g>
	<g>
		<defs>
			<path id="SVGID_5_" d="M42,38c0,2.209-1.791,4-4,4H4c-2.209,0-4-1.791-4-4V4c0-2.209,1.791-4,4-4h34c2.209,0,4,1.791,4,4V38z"/>
		</defs>
		<clipPath id="SVGID_6_">
			<use xlink:href="#SVGID_5_"  overflow="visible"/>
		</clipPath>
		<g clip-path="url(#SVGID_6_)">
			
				<line fill="none" stroke="#FDFDFD" stroke-width="2" stroke-linecap="round" stroke-linejoin="round" stroke-miterlimit="10" x1="13.673" y1="21.25" x2="38.152" y2="21.25"/>
			
				<line fill="none" stroke="#FDFDFD" stroke-width="2" stroke-linecap="round" stroke-linejoin="round" stroke-miterlimit="10" x1="13.673" y1="16.5" x2="32.674" y2="16.5"/>
			
				<line fill="none" stroke="#FDFDFD" stroke-width="2" stroke-linecap="round" stroke-linejoin="round" stroke-miterlimit="10" x1="13.673" y1="30.75" x2="32.674" y2="30.75"/>
			
				<line fill="none" stroke="#FDFDFD" stroke-width="2" stroke-linecap="round" stroke-linejoin="round" stroke-miterlimit="10" x1="38.152" y1="30.75" x2="45.827" y2="30.75"/>
			
				<line fill="none" stroke="#FDFDFD" stroke-width="2" stroke-linecap="round" stroke-linejoin="round" stroke-miterlimit="10" x1="13.673" y1="26" x2="32.674" y2="26"/>
			
				<line fill="none" stroke="#FDFDFD" stroke-width="2" stroke-linecap="round" stroke-linejoin="round" stroke-miterlimit="10" x1="13.673" y1="35.5" x2="32.674" y2="35.5"/>
			
				<polyline fill="none" stroke="#FDFDFD" stroke-width="2" stroke-linecap="round" stroke-linejoin="round" stroke-miterlimit="10" points="
				13.673,35.5 4.173,45 13.673,45 32.674,45 42.173,45 32.674,35.5 			"/>
			
				<polyline fill="none" stroke="#FDFDFD" stroke-width="2" stroke-linecap="round" stroke-linejoin="round" stroke-miterlimit="10" points="
				32.674,16.5 42.173,7 32.674,7 13.673,7 4.173,7 13.673,16.5 			"/>
			<path fill="none" stroke="#FDFDFD" stroke-width="2" stroke-linecap="round" stroke-linejoin="round" stroke-miterlimit="10" d="
				M38.152,21.25c1.312,0,2.375,1.062,2.375,2.375S39.465,26,38.152,26"/>
			<path fill="none" stroke="#FDFDFD" stroke-width="2" stroke-linecap="round" stroke-linejoin="round" stroke-miterlimit="10" d="
				M38.152,30.75c-1.312,0-2.375-1.062-2.375-2.375S36.842,26,38.152,26"/>
		</g>
	</g>
</g>
</svg>
