<?xml version="1.0" encoding="utf-8"?>
<!-- Generator: Adobe Illustrator 16.0.0, SVG Export Plug-In . SVG Version: 6.00 Build 0)  -->
<!DOCTYPE svg PUBLIC "-//W3C//DTD SVG 1.0//EN" "http://www.w3.org/TR/2001/REC-SVG-20010904/DTD/svg10.dtd">
<svg version="1.0" id="Layer_1" xmlns="http://www.w3.org/2000/svg" xmlns:xlink="http://www.w3.org/1999/xlink" x="0px" y="0px"
	 width="42px" height="42px" viewBox="0 0 42 42" enable-background="new 0 0 42 42" xml:space="preserve">
<path fill-rule="evenodd" clip-rule="evenodd" fill="#CCCCCC" d="M41.979,38c0,2.209-1.791,4-4,4h-34c-2.209,0-4-1.791-4-4V4
	c0-2.209,1.791-4,4-4h34c2.209,0,4,1.791,4,4V38z"/>
<g>
	<path fill="none" stroke="#FDFDFD" stroke-width="2" stroke-linecap="round" stroke-linejoin="round" stroke-miterlimit="10" d="
		M1.443,27.667c-3.259-3.259-3.259-8.541,0-11.799c3.258-3.258,8.54-3.258,11.797,0"/>
	
		<line fill="none" stroke="#FDFDFD" stroke-width="2" stroke-linecap="round" stroke-linejoin="round" stroke-miterlimit="10" x1="19.331" y1="45.557" x2="1.504" y2="27.728"/>
	<path fill="none" stroke="#FDFDFD" stroke-width="2" stroke-linecap="round" stroke-linejoin="round" stroke-miterlimit="10" d="
		M30.039,32.638c2.885,3.379,2.694,6.906-0.26,9.904c-2.256,2.288-4.976,2.073-7.253,0.498c-2.148-1.488-2.227-5.211-0.311-6.924
		c1.532-1.372,4.229-1.506,5.679,0c0.778,0.808,1.575,2.839-0.525,4.474c-1.04,0.808-2.976-0.117-2.8-1.459"/>
	
		<line fill="none" stroke="#FDFDFD" stroke-width="2" stroke-linecap="round" stroke-linejoin="round" stroke-miterlimit="10" x1="13.301" y1="15.931" x2="30.025" y2="32.651"/>
	<path fill="none" stroke="#FDFDFD" stroke-width="2" stroke-linecap="round" stroke-linejoin="round" stroke-miterlimit="10" d="
		M13.302,15.929L25.231,4L48.96,27.728L31.13,45.556c-3.258,3.259-8.538,3.259-11.799,0.001"/>
	<path fill="none" stroke="#FDFDFD" stroke-width="2" stroke-linecap="round" stroke-linejoin="round" stroke-miterlimit="10" d="
		M19.331,45.557c-3.257-3.259-3.257-8.541,0-11.799c2.974-2.971,7.825-3.509,10.895-0.785"/>
</g>
</svg>
