<?xml version="1.0" encoding="utf-8"?>
<!-- Generator: Adobe Illustrator 16.0.0, SVG Export Plug-In . SVG Version: 6.00 Build 0)  -->
<!DOCTYPE svg PUBLIC "-//W3C//DTD SVG 1.1//EN" "http://www.w3.org/Graphics/SVG/1.1/DTD/svg11.dtd">
<svg version="1.1" id="Layer_1" xmlns="http://www.w3.org/2000/svg" xmlns:xlink="http://www.w3.org/1999/xlink" x="0px" y="0px"
	 width="42px" height="42px" viewBox="0 0 42 42" enable-background="new 0 0 42 42" xml:space="preserve">
<g>
	<g>
		<defs>
			<path id="SVGID_1_" d="M42,38c0,2.209-1.791,4-4,4H4c-2.209,0-4-1.791-4-4V4c0-2.209,1.791-4,4-4h34c2.209,0,4,1.791,4,4V38z"/>
		</defs>
		<clipPath id="SVGID_2_">
			<use xlink:href="#SVGID_1_"  overflow="visible"/>
		</clipPath>
		<path clip-path="url(#SVGID_2_)" fill="#CCCCCC" d="M42,38c0,2.209-1.791,4-4,4H4c-2.209,0-4-1.791-4-4V4c0-2.209,1.791-4,4-4h34
			c2.209,0,4,1.791,4,4V38z"/>
	</g>
	<g>
		<defs>
			<path id="SVGID_3_" d="M42,38c0,2.209-1.791,4-4,4H4c-2.209,0-4-1.791-4-4V4c0-2.209,1.791-4,4-4h34c2.209,0,4,1.791,4,4V38z"/>
		</defs>
		<clipPath id="SVGID_4_">
			<use xlink:href="#SVGID_3_"  overflow="visible"/>
		</clipPath>
	</g>
	<g>
		<defs>
			<path id="SVGID_5_" d="M42,38c0,2.209-1.791,4-4,4H4c-2.209,0-4-1.791-4-4V4c0-2.209,1.791-4,4-4h34c2.209,0,4,1.791,4,4V38z"/>
		</defs>
		<clipPath id="SVGID_6_">
			<use xlink:href="#SVGID_5_"  overflow="visible"/>
		</clipPath>
		<g clip-path="url(#SVGID_6_)">
			
				<circle fill="none" stroke="#FDFDFD" stroke-width="2" stroke-linecap="round" stroke-linejoin="round" stroke-miterlimit="10" cx="15.292" cy="23.518" r="2.484"/>
			<path fill="none" stroke="#FDFDFD" stroke-width="2" stroke-linecap="round" stroke-linejoin="round" stroke-miterlimit="10" d="
				M32.146,14.33c0.569-1.007,0.901-2.169,0.901-3.41c0-3.822-3.098-6.92-6.919-6.92c-3.822,0-6.92,3.098-6.92,6.92
				c0,1.241,0.331,2.402,0.903,3.41"/>
			<path fill="none" stroke="#FDFDFD" stroke-width="2" stroke-linecap="round" stroke-linejoin="round" stroke-miterlimit="10" d="
				M16.846,16.717c5.128-5.128,13.439-5.128,18.567,0"/>
			<path fill="none" stroke="#FDFDFD" stroke-width="2" stroke-linecap="round" stroke-linejoin="round" stroke-miterlimit="10" d="
				M8.904,23.518H5.548c-0.784,0-1.42,0.635-1.42,1.42v5.678c0,0.783,0.636,1.419,1.42,1.419h3.357"/>
			<g>
				<g>
					
						<path fill="none" stroke="#FDFDFD" stroke-width="2" stroke-linecap="round" stroke-linejoin="round" stroke-miterlimit="10" d="
						M9.255,13.552c2.033-0.991,4.312-0.889,6.182,0.066"/>
					
						<path fill="none" stroke="#FDFDFD" stroke-width="2" stroke-linecap="round" stroke-linejoin="round" stroke-miterlimit="10" d="
						M11.782,17.338c-0.378-1.459-1.229-2.808-2.527-3.786"/>
				</g>
			</g>
			<path fill="none" stroke="#FDFDFD" stroke-width="2" stroke-linecap="round" stroke-linejoin="round" stroke-miterlimit="10" d="
				M11.782,17.352c-1.329,1.824-2.321,3.908-2.878,6.166"/>
			<g>
				
					<path fill="none" stroke="#FDFDFD" stroke-width="2" stroke-linecap="round" stroke-linejoin="round" stroke-miterlimit="10" d="
					M15.437,13.623c1.16-0.878,2.435-1.616,3.793-2.191"/>
				
					<path fill="none" stroke="#FDFDFD" stroke-width="2" stroke-linecap="round" stroke-linejoin="round" stroke-miterlimit="10" d="
					M33.027,11.429c6.371,2.692,10.845,8.997,10.845,16.346c0,4.703-1.835,8.974-4.82,12.148l2.034,4.17
					c0.342,0.704,0.051,1.553-0.654,1.897l-1.273,0.622h-0.001l-2.552,1.244c-0.473,0.229-1.008,0.17-1.414-0.104
					c-0.199-0.136-0.373-0.317-0.484-0.549l-1.532-3.144c-2.159,0.936-4.541,1.455-7.044,1.455c-2.504,0-4.884-0.521-7.044-1.457
					l-1.533,3.146c-0.108,0.221-0.271,0.396-0.459,0.528c-0.409,0.291-0.957,0.359-1.438,0.123l-2.552-1.244H13.1l-1.272-0.621
					c-0.704-0.344-0.996-1.193-0.652-1.896l2.033-4.172c-2.053-2.182-3.562-4.883-4.303-7.889"/>
			</g>
		</g>
	</g>
</g>
</svg>
