<?xml version="1.0" encoding="utf-8"?>
<!-- Generator: Adobe Illustrator 16.0.0, SVG Export Plug-In . SVG Version: 6.00 Build 0)  -->
<!DOCTYPE svg PUBLIC "-//W3C//DTD SVG 1.1//EN" "http://www.w3.org/Graphics/SVG/1.1/DTD/svg11.dtd">
<svg version="1.1" id="Layer_1" xmlns="http://www.w3.org/2000/svg" xmlns:xlink="http://www.w3.org/1999/xlink" x="0px" y="0px"
	 width="42px" height="42px" viewBox="0 0 42 42" enable-background="new 0 0 42 42" xml:space="preserve">
<g>
	<g>
		<defs>
			<path id="SVGID_1_" d="M42,38c0,2.209-1.791,4-4,4H4c-2.209,0-4-1.791-4-4V4c0-2.209,1.791-4,4-4h34c2.209,0,4,1.791,4,4V38z"/>
		</defs>
		<clipPath id="SVGID_2_">
			<use xlink:href="#SVGID_1_"  overflow="visible"/>
		</clipPath>
		<path clip-path="url(#SVGID_2_)" fill="#CCCCCC" d="M42,38c0,2.209-1.791,4-4,4H4c-2.209,0-4-1.791-4-4V4c0-2.209,1.791-4,4-4h34
			c2.209,0,4,1.791,4,4V38z"/>
	</g>
	<g>
		<defs>
			<path id="SVGID_3_" d="M42,38c0,2.209-1.791,4-4,4H4c-2.209,0-4-1.791-4-4V4c0-2.209,1.791-4,4-4h34c2.209,0,4,1.791,4,4V38z"/>
		</defs>
		<clipPath id="SVGID_4_">
			<use xlink:href="#SVGID_3_"  overflow="visible"/>
		</clipPath>
	</g>
	<g>
		<defs>
			<path id="SVGID_5_" d="M42,38c0,2.209-1.791,4-4,4H4c-2.209,0-4-1.791-4-4V4c0-2.209,1.791-4,4-4h34c2.209,0,4,1.791,4,4V38z"/>
		</defs>
		<clipPath id="SVGID_6_">
			<use xlink:href="#SVGID_5_"  overflow="visible"/>
		</clipPath>
		<g clip-path="url(#SVGID_6_)">
			<g>
				
					<polyline fill="none" stroke="#FDFDFD" stroke-width="2" stroke-linecap="round" stroke-linejoin="round" stroke-miterlimit="10" points="
					33,21.5 33,19.797 31.518,16.5 16.483,16.5 15,19.797 15,21.5 				"/>
				
					<path fill="none" stroke="#FDFDFD" stroke-width="2" stroke-linecap="round" stroke-linejoin="round" stroke-miterlimit="10" d="
					M43.738,37.395c-2.717-2.067-6.004-3.803-9.744-4.895c-2.148,2.657-5.822,4.282-9.994,4.282s-7.842-1.625-9.99-4.282
					c-3.744,1.092-7.028,2.826-9.745,4.895C3.743,37.791,3.343,38.25,3,38.729v5.28c3.771,1.953,8.441,3.38,13.641,4.082
					C19.022,48.332,21.463,48.5,24,48.5c2.498,0,4.896-0.164,7.242-0.396c5.246-0.701,9.959-2.139,13.758-4.108v-5.269
					C44.661,38.248,44.262,37.791,43.738,37.395z"/>
			</g>
			<path fill="none" stroke="#FDFDFD" stroke-width="2" stroke-linecap="round" stroke-linejoin="round" stroke-miterlimit="10" d="
				M14.531,13.717H7c0,5.497,3.211,7.93,7.51,10.326l1.094,4.781c0,0,3.885,4.676,8.354,4.676h0.088
				c4.463,0,8.349-4.676,8.349-4.676l1.094-4.781C37.789,21.645,41,19.218,41,13.717h-7.535l0,0C32.807,7.376,28.82,2.5,23.998,2.5
				C19.179,2.5,15.191,7.376,14.531,13.717L14.531,13.717z"/>
			
				<ellipse fill="none" stroke="#FDFDFD" stroke-width="2" stroke-linecap="round" stroke-linejoin="round" stroke-miterlimit="10" cx="24" cy="10" rx="3" ry="3.5"/>
		</g>
	</g>
</g>
</svg>
