<?xml version="1.0" encoding="utf-8"?>
<!-- Generator: Adobe Illustrator 16.0.0, SVG Export Plug-In . SVG Version: 6.00 Build 0)  -->
<!DOCTYPE svg PUBLIC "-//W3C//DTD SVG 1.0//EN" "http://www.w3.org/TR/2001/REC-SVG-20010904/DTD/svg10.dtd">
<svg version="1.0" id="Layer_1" xmlns="http://www.w3.org/2000/svg" xmlns:xlink="http://www.w3.org/1999/xlink" x="0px" y="0px"
	 width="42px" height="42px" viewBox="0 0 42 42" enable-background="new 0 0 42 42" xml:space="preserve">
<g>
	<defs>
		<path id="SVGID_1_" d="M42,38c0,2.209-1.791,4-4,4H4c-2.209,0-4-1.791-4-4V4c0-2.209,1.791-4,4-4h34c2.209,0,4,1.791,4,4V38z"/>
	</defs>
	<clipPath id="SVGID_2_">
		<use xlink:href="#SVGID_1_"  overflow="visible"/>
	</clipPath>
	<linearGradient id="SVGID_3_" gradientUnits="userSpaceOnUse" x1="1.1719" y1="40.8291" x2="40.8287" y2="1.1723">
		<stop  offset="0" style="stop-color:#FFA385"/>
		<stop  offset="1" style="stop-color:#FF6633"/>
	</linearGradient>
	<path clip-path="url(#SVGID_2_)" fill-rule="evenodd" clip-rule="evenodd" fill="url(#SVGID_3_)" d="M42,38c0,2.209-1.791,4-4,4H4
		c-2.209,0-4-1.791-4-4V4c0-2.209,1.791-4,4-4h34c2.209,0,4,1.791,4,4V38z"/>
	<g clip-path="url(#SVGID_2_)">
		
			<line fill="none" stroke="#FF6633" stroke-width="2" stroke-linecap="round" stroke-linejoin="round" stroke-miterlimit="10" x1="13.017" y1="8.374" x2="13.017" y2="18.066"/>
		
			<line fill="none" stroke="#FF6633" stroke-width="2" stroke-linecap="round" stroke-linejoin="round" stroke-miterlimit="10" x1="8.171" y1="13.22" x2="17.863" y2="13.22"/>
		
			<line fill="none" stroke="#FF6633" stroke-width="2" stroke-linecap="round" stroke-linejoin="round" stroke-miterlimit="10" x1="16.443" y1="26.755" x2="9.591" y2="33.607"/>
		
			<line fill="none" stroke="#FF6633" stroke-width="2" stroke-linecap="round" stroke-linejoin="round" stroke-miterlimit="10" x1="9.591" y1="26.754" x2="16.443" y2="33.607"/>
		
			<line fill="none" stroke="#FF6633" stroke-width="2" stroke-linecap="round" stroke-linejoin="round" stroke-miterlimit="10" x1="25.133" y1="13.22" x2="34.825" y2="13.22"/>
		
			<line fill="none" stroke="#FF6633" stroke-width="2" stroke-linecap="round" stroke-linejoin="round" stroke-miterlimit="10" x1="25.133" y1="32.201" x2="34.825" y2="32.201"/>
		
			<line fill="none" stroke="#FF6633" stroke-width="2" stroke-linecap="round" stroke-linejoin="round" stroke-miterlimit="10" x1="25.133" y1="28.162" x2="34.825" y2="28.162"/>
	</g>
	<g clip-path="url(#SVGID_2_)">
		
			<line fill="none" stroke="#FDFDFD" stroke-width="2" stroke-linecap="round" stroke-linejoin="round" stroke-miterlimit="10" x1="12.518" y1="7.673" x2="12.518" y2="17.366"/>
		
			<line fill="none" stroke="#FDFDFD" stroke-width="2" stroke-linecap="round" stroke-linejoin="round" stroke-miterlimit="10" x1="7.673" y1="12.52" x2="17.365" y2="12.52"/>
		
			<line fill="none" stroke="#FDFDFD" stroke-width="2" stroke-linecap="round" stroke-linejoin="round" stroke-miterlimit="10" x1="15.945" y1="26.055" x2="9.093" y2="32.907"/>
		
			<line fill="none" stroke="#FDFDFD" stroke-width="2" stroke-linecap="round" stroke-linejoin="round" stroke-miterlimit="10" x1="9.093" y1="26.053" x2="15.945" y2="32.907"/>
		
			<line fill="none" stroke="#FDFDFD" stroke-width="2" stroke-linecap="round" stroke-linejoin="round" stroke-miterlimit="10" x1="24.635" y1="12.52" x2="34.327" y2="12.52"/>
		
			<line fill="none" stroke="#FDFDFD" stroke-width="2" stroke-linecap="round" stroke-linejoin="round" stroke-miterlimit="10" x1="24.635" y1="31.5" x2="34.327" y2="31.5"/>
		
			<line fill="none" stroke="#FDFDFD" stroke-width="2" stroke-linecap="round" stroke-linejoin="round" stroke-miterlimit="10" x1="24.635" y1="27.461" x2="34.327" y2="27.461"/>
	</g>
</g>
</svg>
