<?xml version="1.0" encoding="utf-8"?>
<!-- Generator: Adobe Illustrator 16.0.0, SVG Export Plug-In . SVG Version: 6.00 Build 0)  -->
<!DOCTYPE svg PUBLIC "-//W3C//DTD SVG 1.1//EN" "http://www.w3.org/Graphics/SVG/1.1/DTD/svg11.dtd">
<svg version="1.1" id="Layer_1" xmlns="http://www.w3.org/2000/svg" xmlns:xlink="http://www.w3.org/1999/xlink" x="0px" y="0px"
	 width="42px" height="42px" viewBox="0 0 42 42" enable-background="new 0 0 42 42" xml:space="preserve">
<g>
	<defs>
		<path id="SVGID_1_" d="M42,38c0,2.209-1.791,4-4,4H4c-2.209,0-4-1.791-4-4V4c0-2.209,1.791-4,4-4h34c2.209,0,4,1.791,4,4V38z"/>
	</defs>
	<clipPath id="SVGID_2_">
		<use xlink:href="#SVGID_1_"  overflow="visible"/>
	</clipPath>
	<linearGradient id="SVGID_3_" gradientUnits="userSpaceOnUse" x1="1.1724" y1="40.8291" x2="40.8289" y2="1.1726">
		<stop  offset="0" style="stop-color:#FFA385"/>
		<stop  offset="1" style="stop-color:#FF6633"/>
	</linearGradient>
	<path clip-path="url(#SVGID_2_)" fill-rule="evenodd" clip-rule="evenodd" fill="url(#SVGID_3_)" d="M42,38c0,2.209-1.791,4-4,4H4
		c-2.209,0-4-1.791-4-4V4c0-2.209,1.791-4,4-4h34c2.209,0,4,1.791,4,4V38z"/>
	<g clip-path="url(#SVGID_2_)">
		<g>
			<path fill="none" stroke="#FF6633" stroke-width="2" stroke-linecap="round" stroke-linejoin="round" stroke-miterlimit="10" d="
				M25,38.422c0-4.041,2.982-5.3,2.982-9.801c0-3.278-1.136-6.58-7.723-6.826c-8.253-0.306-7.187,9.787-11.798,9.787
				c0,0-1.538-0.094-1.538-1.691V16.54c0-1.208,1.601-1.208,1.601-1.208c2.434,0,3.172,3.141,7.61,3.141
				c4.439,0,9.704-3.141,14.439-3.141c6.393,0,5.729,2.886,7.081,3.491c1.072,0.48,2.346-0.121,2.346-2.143v-3.455
				c0-0.415,0.345-0.752,0.768-0.752h1.538c0.427,0,0.771,0.337,0.771,0.752v15.795c0,0.415-0.344,0.753-0.771,0.753h-1.538
				c-0.423,0-0.768-0.338-0.768-0.753v-4.985c-0.695-1.396-2.969-0.833-2.969,1.338v13.049"/>
			
				<line fill="none" stroke="#FF6633" stroke-width="2" stroke-linecap="round" stroke-linejoin="round" stroke-miterlimit="10" x1="8.462" y1="31.582" x2="8.462" y2="34.662"/>
			
				<line fill="none" stroke="#FF6633" stroke-width="2" stroke-linecap="round" stroke-linejoin="round" stroke-miterlimit="10" x1="8.462" y1="13.155" x2="8.462" y2="14.73"/>
		</g>
		<path fill="none" stroke="#FF6633" stroke-width="2" stroke-linecap="round" stroke-linejoin="round" stroke-miterlimit="10" d="
			M45,45.943c0,1.246-1.034,2.257-2.308,2.257H7.308C6.034,48.2,5,47.189,5,45.943v-5.265c0-1.246,1.034-2.257,2.308-2.257h35.385
			c1.273,0,2.308,1.011,2.308,2.257V45.943z"/>
		<path fill="none" stroke="#FF6633" stroke-width="2" stroke-linecap="round" stroke-linejoin="round" stroke-miterlimit="10" d="
			M33.702,11.346c0,0.623-0.517,1.127-1.154,1.127h-2.691c-0.638,0-1.154-0.505-1.154-1.127V5.328c0-0.623,0.517-1.128,1.154-1.128
			h2.691c0.638,0,1.154,0.505,1.154,1.128V11.346z"/>
	</g>
	<g clip-path="url(#SVGID_2_)">
		<g>
			<path fill="none" stroke="#FDFDFD" stroke-width="2" stroke-linecap="round" stroke-linejoin="round" stroke-miterlimit="10" d="
				M24.5,37.723c0-4.042,2.982-5.301,2.982-9.802c0-3.278-1.136-6.581-7.723-6.826c-8.253-0.306-7.187,9.788-11.798,9.788
				c0,0-1.538-0.095-1.538-1.692V15.839c0-1.208,1.601-1.208,1.601-1.208c2.434,0,3.172,3.141,7.61,3.141
				c4.439,0,9.704-3.141,14.439-3.141c6.393,0,5.729,2.886,7.081,3.491c1.072,0.48,2.346-0.121,2.346-2.143v-3.455
				c0-0.415,0.345-0.752,0.768-0.752h1.538c0.427,0,0.771,0.337,0.771,0.752V28.32c0,0.415-0.344,0.752-0.771,0.752h-1.538
				c-0.423,0-0.768-0.337-0.768-0.752v-4.986c-0.695-1.396-2.969-0.832-2.969,1.339v13.05"/>
			
				<line fill="none" stroke="#FDFDFD" stroke-width="2" stroke-linecap="round" stroke-linejoin="round" stroke-miterlimit="10" x1="7.962" y1="30.883" x2="7.962" y2="33.961"/>
			
				<line fill="none" stroke="#FDFDFD" stroke-width="2" stroke-linecap="round" stroke-linejoin="round" stroke-miterlimit="10" x1="7.962" y1="12.455" x2="7.962" y2="14.03"/>
		</g>
		<path fill="none" stroke="#FDFDFD" stroke-width="2" stroke-linecap="round" stroke-linejoin="round" stroke-miterlimit="10" d="
			M44.5,45.244c0,1.246-1.034,2.256-2.308,2.256H6.808c-1.273,0-2.308-1.01-2.308-2.256v-5.266c0-1.246,1.034-2.256,2.308-2.256
			h35.385c1.273,0,2.308,1.01,2.308,2.256V45.244z"/>
		<path fill="none" stroke="#FDFDFD" stroke-width="2" stroke-linecap="round" stroke-linejoin="round" stroke-miterlimit="10" d="
			M33.202,10.646c0,0.623-0.517,1.127-1.154,1.127h-2.691c-0.638,0-1.154-0.505-1.154-1.127V4.628c0-0.623,0.517-1.128,1.154-1.128
			h2.691c0.638,0,1.154,0.505,1.154,1.128V10.646z"/>
	</g>
</g>
</svg>
